<?xml version="1.0" encoding="utf-8"?>
<!-- Generator: Adobe Illustrator 15.0.0, SVG Export Plug-In . SVG Version: 6.00 Build 0)  -->
<!DOCTYPE svg PUBLIC "-//W3C//DTD SVG 1.1//EN" "http://www.w3.org/Graphics/SVG/1.1/DTD/svg11.dtd">
<svg version="1.1" id="Calque_1" xmlns="http://www.w3.org/2000/svg" xmlns:xlink="http://www.w3.org/1999/xlink" x="0px" y="0px"
	 width="321px" height="95px" viewBox="176.5 203.856 321 95" enable-background="new 176.5 203.856 321 95" xml:space="preserve">
<g>
	<g>
		<line fill="none" x1="359.912" y1="221.531" x2="359.912" y2="280.865"/>
		<rect x="359.331" y="221.531" fill="#5F6062" width="1.163" height="59.334"/>
	</g>
</g>
<g>
	<rect x="195.992" y="221.558" fill="#EE3524" width="15.521" height="59.322"/>
	<polygon fill="#EE3524" points="233.131,221.558 243.147,258.115 243.313,258.115 243.313,221.558 257.834,221.558 
		257.834,280.881 240.809,280.881 230.463,244.243 230.296,244.243 230.296,280.881 215.772,280.881 215.772,221.558 	"/>
	<path fill="#EE3524" d="M285.883,237.26c0-1.771-0.368-3.282-1.09-4.525c-0.726-1.251-1.838-1.871-3.335-1.871
		c-1.672,0-2.897,0.539-3.673,1.621c-0.783,1.079-1.17,2.281-1.17,3.616c0,1.936,0.627,3.476,1.878,4.609
		c1.252,1.136,2.822,2.117,4.712,2.947c1.895,0.831,3.924,1.676,6.097,2.535c2.169,0.861,4.201,1.98,6.094,3.367
		c1.89,1.385,3.462,3.198,4.713,5.439c1.254,2.244,1.879,5.166,1.879,8.768c0,6.314-1.808,10.9-5.424,13.75
		c-3.619,2.859-8.85,4.279-15.693,4.279c-3.228,0-6.078-0.266-8.558-0.787c-2.472-0.528-4.562-1.441-6.257-2.745
		c-1.697-1.298-2.993-3.003-3.879-5.112c-0.89-2.104-1.333-4.707-1.333-7.807v-2.082h15.02v1.418c0,2.551,0.473,4.334,1.418,5.358
		c0.948,1.028,2.17,1.542,3.673,1.542c1.616,0,2.848-0.559,3.717-1.664c0.86-1.107,1.294-2.461,1.294-4.074
		c0-1.933-0.604-3.475-1.799-4.606c-1.196-1.136-2.698-2.106-4.503-2.911c-1.811-0.8-3.771-1.621-5.883-2.452
		c-2.12-0.831-4.082-1.909-5.891-3.239c-1.808-1.332-3.31-3.073-4.505-5.238c-1.199-2.154-1.795-4.984-1.795-8.471
		c0-6.036,1.614-10.636,4.844-13.794c3.226-3.156,8.122-4.738,14.688-4.738c6.786,0,11.696,1.456,14.73,4.365
		c3.033,2.907,4.551,7.549,4.551,13.918h-14.521L285.883,237.26L285.883,237.26z"/>
	<path fill="#EE3524" d="M334.289,221.556l14.521,59.324h-16.521l-1.59-10.382h-12.353l-1.587,10.382h-16.274l14.274-59.324H334.289
		z M324.44,233.689l-4.257,25.171h8.682l-4.265-25.171H324.44L324.44,233.689z"/>
</g>
<polygon fill="#5F6062" points="338.299,221.53 348.814,221.53 348.814,266.078 "/>
<g>
	<g>
		<path fill="#5F6062" d="M371.08,221.534h1.289v10.463h-1.289V221.534z"/>
		<path fill="#5F6062" d="M374.08,221.534h1.671l3.459,8.734h0.028v-8.734h1.29v10.463h-1.773l-3.355-8.47h-0.03v8.47h-1.288
			L374.08,221.534L374.08,221.534z"/>
		<path fill="#5F6062" d="M386.707,224.245c0-1.099-0.396-1.861-1.626-1.861c-1.085,0-1.73,0.586-1.73,1.7
			c0,2.946,4.938,1.187,4.938,5.012c0,2.418-1.773,3.107-3.254,3.107c-2.446,0-3.165-1.26-3.165-3.488h1.289
			c0,1.173,0.074,2.433,1.965,2.433c1.026,0,1.817-0.733,1.817-1.847c0-2.96-4.938-1.246-4.938-5.086
			c0-0.966,0.41-2.886,3.063-2.886c1.992,0,2.899,0.997,2.93,2.917L386.707,224.245L386.707,224.245z"/>
		<path fill="#5F6062" d="M392.83,231.997h-1.289v-9.32h-2.624v-1.143h6.551v1.143h-2.638V231.997z"/>
		<path fill="#5F6062" d="M396.566,221.534h1.289v10.463h-1.289V221.534z"/>
		<path fill="#5F6062" d="M402.852,231.997h-1.289v-9.32h-2.623v-1.143h6.55v1.143h-2.638V231.997z"/>
		<path fill="#5F6062" d="M406.533,221.534h1.29v7.357c0,1.539,0.497,2.257,1.773,2.257c1.378,0,1.788-0.792,1.788-2.257v-7.357
			h1.29v7.357c0,2.007-1.026,3.312-3.078,3.312c-2.096,0-3.063-1.157-3.063-3.312V221.534z"/>
		<path fill="#5F6062" d="M417.631,231.997h-1.289v-9.32h-2.624v-1.143h6.55v1.143h-2.637V231.997z"/>
		<path fill="#5F6062" d="M424.755,221.534h1.671l3.458,8.734h0.029v-8.734h1.289v10.463h-1.773l-3.354-8.47h-0.03v8.47h-1.289
			V221.534z"/>
		<path fill="#5F6062" d="M435.216,221.534h1.729l2.814,10.463h-1.348l-0.747-2.872h-3.343l-0.776,2.872h-1.348L435.216,221.534z
			 M434.586,228.07h2.813l-1.333-5.056h-0.03L434.586,228.07z"/>
		<path fill="#5F6062" d="M443.025,231.997h-1.289v-9.32h-2.624v-1.143h6.551v1.143h-2.638V231.997z"/>
		<path fill="#5F6062" d="M446.761,221.534h1.289v10.463h-1.289V221.534z"/>
		<path fill="#5F6062" d="M456.317,226.765c0,2.638-0.483,5.437-3.37,5.437s-3.371-2.799-3.371-5.437s0.484-5.437,3.371-5.437
			S456.317,224.127,456.317,226.765z M450.925,226.765c0,2.418,0.234,4.382,2.022,4.382c1.787,0,2.022-1.964,2.022-4.382
			c0-2.417-0.235-4.382-2.022-4.382C451.159,222.384,450.925,224.347,450.925,226.765z"/>
		<path fill="#5F6062" d="M457.845,221.534h1.67l3.46,8.734h0.029v-8.734h1.29v10.463h-1.773l-3.357-8.47h-0.029v8.47h-1.289
			V221.534L457.845,221.534z"/>
		<path fill="#5F6062" d="M468.306,221.534h1.729l2.813,10.463h-1.348l-0.748-2.872h-3.341l-0.776,2.872h-1.349L468.306,221.534z
			 M467.677,228.07h2.814l-1.335-5.056h-0.029L467.677,228.07z"/>
		<path fill="#5F6062" d="M473.836,221.534h1.289v9.32h4.25v1.143h-5.539V221.534z"/>
		<path fill="#5F6062" d="M371.212,237.82h2.8c3.252,0,3.663,2.345,3.663,5.232c0,2.638-0.659,5.231-3.532,5.231h-2.931V237.82
			L371.212,237.82z M372.502,247.229h1.348c2.228,0,2.478-2.287,2.478-4.162c0-2.023-0.133-4.191-2.478-4.191h-1.348V247.229z"/>
		<path fill="#5F6062" d="M379.182,237.82h5.407v1.143h-4.117v3.283h3.884v1.143h-3.884v3.752h4.293v1.143h-5.583V237.82z"/>
		<path fill="#5F6062" d="M390.465,240.531c0-1.1-0.396-1.861-1.627-1.861c-1.084,0-1.729,0.586-1.729,1.7
			c0,2.945,4.938,1.187,4.938,5.012c0,2.418-1.773,3.107-3.252,3.107c-2.447,0-3.166-1.26-3.166-3.488h1.29
			c0,1.173,0.072,2.433,1.963,2.433c1.026,0,1.817-0.732,1.817-1.846c0-2.96-4.938-1.247-4.938-5.086
			c0-0.966,0.41-2.887,3.063-2.887c1.992,0,2.901,0.997,2.931,2.917L390.465,240.531L390.465,240.531z"/>
		<path fill="#5F6062" d="M401.311,240.531c0-1.1-0.396-1.861-1.627-1.861c-1.084,0-1.729,0.586-1.729,1.7
			c0,2.945,4.938,1.187,4.938,5.012c0,2.418-1.771,3.107-3.252,3.107c-2.448,0-3.167-1.26-3.167-3.488h1.29
			c0,1.173,0.074,2.433,1.964,2.433c1.026,0,1.816-0.732,1.816-1.846c0-2.96-4.938-1.247-4.938-5.086
			c0-0.966,0.411-2.887,3.063-2.887c1.993,0,2.902,0.997,2.932,2.917L401.311,240.531L401.311,240.531z"/>
		<path fill="#5F6062" d="M410.592,244.694c-0.118,1.978-0.895,3.795-3.181,3.795c-2.976,0-3.37-2.799-3.37-5.437
			s0.483-5.438,3.37-5.438c2.14,0,3.033,1.202,3.093,3.254h-1.35c-0.028-1.187-0.409-2.198-1.743-2.198
			c-1.788,0-2.022,1.963-2.022,4.382c0,2.418,0.234,4.382,2.022,4.382c1.568,0,1.789-1.466,1.833-2.74L410.592,244.694
			L410.592,244.694z"/>
		<path fill="#5F6062" d="M411.825,237.82h1.289v10.463h-1.289V237.82z"/>
		<path fill="#5F6062" d="M414.826,237.82h5.408v1.143h-4.119v3.283h3.884v1.143h-3.884v3.752h4.294v1.143h-5.583V237.82z"/>
		<path fill="#5F6062" d="M421.622,237.82h1.671l3.459,8.735h0.029v-8.735h1.289v10.463h-1.773l-3.356-8.471h-0.028v8.471h-1.29
			V237.82L421.622,237.82z"/>
		<path fill="#5F6062" d="M436.15,244.694c-0.117,1.978-0.895,3.795-3.181,3.795c-2.976,0-3.37-2.799-3.37-5.437
			s0.483-5.438,3.37-5.438c2.14,0,3.034,1.202,3.093,3.254h-1.348c-0.029-1.187-0.412-2.198-1.744-2.198
			c-1.788,0-2.023,1.963-2.023,4.382c0,2.418,0.235,4.382,2.023,4.382c1.567,0,1.787-1.466,1.831-2.74L436.15,244.694
			L436.15,244.694z"/>
		<path fill="#5F6062" d="M437.391,237.82h5.407v1.143h-4.118v3.283h3.884v1.143h-3.884v3.752h4.294v1.143h-5.583V237.82z"/>
		<path fill="#5F6062" d="M448.674,240.531c0-1.1-0.396-1.861-1.626-1.861c-1.085,0-1.73,0.586-1.73,1.7
			c0,2.945,4.939,1.187,4.939,5.012c0,2.418-1.773,3.107-3.254,3.107c-2.447,0-3.165-1.26-3.165-3.488h1.289
			c0,1.173,0.073,2.433,1.964,2.433c1.025,0,1.817-0.732,1.817-1.846c0-2.96-4.939-1.247-4.939-5.086
			c0-0.966,0.411-2.887,3.063-2.887c1.993,0,2.902,0.997,2.931,2.917L448.674,240.531L448.674,240.531z"/>
		<path fill="#5F6062" d="M373.131,254.106h1.729l2.814,10.465h-1.348l-0.748-2.873h-3.341l-0.777,2.873h-1.348L373.131,254.106z
			 M372.502,260.643h2.813l-1.333-5.057h-0.029L372.502,260.643z"/>
		<path fill="#5F6062" d="M378.661,254.106h2.667c0.909,0,3.238,0,3.238,3.005c0,1.949-1.245,3.034-3.019,3.034h-1.598v4.426h-1.289
			V254.106L378.661,254.106z M379.951,259.088h1.539c0.938,0,1.729-0.645,1.729-2.036c0-1.144-0.541-1.89-1.816-1.89h-1.451V259.088
			L379.951,259.088z"/>
		<path fill="#5F6062" d="M385.752,254.106h2.667c0.909,0,3.238,0,3.238,3.005c0,1.949-1.245,3.034-3.019,3.034h-1.597v4.426h-1.29
			V254.106L385.752,254.106z M387.042,259.088h1.539c0.938,0,1.729-0.645,1.729-2.036c0-1.144-0.542-1.89-1.816-1.89h-1.451V259.088
			L387.042,259.088z"/>
		<path fill="#5F6062" d="M392.844,254.106h1.289v9.32h4.251v1.145h-5.54V254.106z"/>
		<path fill="#5F6062" d="M399.481,254.106h1.29v10.465h-1.29V254.106z"/>
		<path fill="#5F6062" d="M407.469,264.247c-0.455,0.338-1.055,0.528-1.803,0.528c-2.887,0-3.37-2.8-3.37-5.438
			s0.483-5.438,3.37-5.438s3.371,2.8,3.371,5.438c0,1.51-0.162,3.078-0.851,4.133l1.056,0.967l-0.718,0.763L407.469,264.247z
			 M405.607,262.562l0.719-0.792l0.967,0.88c0.321-0.79,0.396-1.978,0.396-3.312c0-2.418-0.234-4.383-2.022-4.383
			c-1.787,0-2.022,1.965-2.022,4.383s0.235,4.383,2.022,4.383c0.381,0,0.704-0.089,0.953-0.25L405.607,262.562z"/>
		<path fill="#5F6062" d="M410.47,254.106h1.289v7.357c0,1.539,0.498,2.258,1.773,2.258c1.378,0,1.787-0.792,1.787-2.258v-7.357
			h1.29v7.357c0,2.008-1.026,3.313-3.077,3.313c-2.096,0-3.063-1.158-3.063-3.313V254.106L410.47,254.106z"/>
		<path fill="#5F6062" d="M418.269,254.106h5.407v1.144h-4.117v3.282h3.883v1.144h-3.883v3.752h4.294v1.144h-5.584V254.106z
			 M421.289,251.453h1.436l-1.583,2.082h-0.879L421.289,251.453z"/>
		<path fill="#5F6062" d="M425.067,254.106h5.407v1.144h-4.118v3.282h3.884v1.144h-3.884v3.752h4.293v1.144h-5.582V254.106z"/>
		<path fill="#5F6062" d="M436.349,256.818c0-1.099-0.396-1.862-1.628-1.862c-1.084,0-1.729,0.588-1.729,1.701
			c0,2.945,4.938,1.188,4.938,5.012c0,2.418-1.773,3.107-3.253,3.107c-2.448,0-3.166-1.262-3.166-3.488h1.29
			c0,1.173,0.073,2.434,1.964,2.434c1.025,0,1.816-0.733,1.816-1.847c0-2.96-4.938-1.246-4.938-5.087
			c0-0.966,0.41-2.886,3.063-2.886c1.993,0,2.901,0.997,2.931,2.916H436.349L436.349,256.818z"/>
		<path fill="#5F6062" d="M370.992,270.393h4.133c2.096,0,2.814,1.289,2.814,2.725c0,1.524-0.616,2.273-1.759,2.551v0.029
			c1.567,0.221,1.656,1.201,1.686,2.607c0.043,2.068,0.117,2.272,0.469,2.42v0.131h-2.652c-0.19-0.353-0.264-0.938-0.264-2.125
			c0-1.816-0.249-2.198-1.026-2.198h-0.938v4.323h-2.461L370.992,270.393L370.992,270.393z M373.454,274.803h0.762
			c0.997,0,1.261-0.746,1.261-1.362c0-0.791-0.293-1.319-1.274-1.319h-0.748V274.803L373.454,274.803z"/>
		<path fill="#5F6062" d="M379.753,270.393h6.053v1.993h-3.591v2.096h3.37v1.993h-3.37v2.389h3.752v1.992h-6.214V270.393z"/>
		<path fill="#5F6062" d="M387.476,270.393h2.828l2.021,6.801h0.03v-6.801h2.286v10.463h-2.784l-2.154-7.21h-0.029v7.21h-2.198
			V270.393L387.476,270.393z"/>
		<path fill="#5F6062" d="M396.5,270.393h2.828l2.021,6.801h0.029v-6.801h2.286v10.463h-2.784l-2.154-7.21h-0.029v7.21H396.5
			V270.393z"/>
		<path fill="#5F6062" d="M405.522,270.393h6.053v1.993h-3.591v2.096h3.371v1.993h-3.371v2.389h3.752v1.992h-6.214V270.393
			L405.522,270.393z"/>
		<path fill="#5F6062" d="M415.38,277.661v0.366c0,0.791,0.22,1.393,1.068,1.393c0.864,0,1.114-0.646,1.114-1.246
			c0-2.257-4.498-0.996-4.498-4.91c0-1.67,0.894-3.076,3.429-3.076c2.462,0,3.342,1.245,3.342,2.857v0.249h-2.375
			c0-0.499-0.058-0.864-0.205-1.099c-0.146-0.25-0.381-0.367-0.746-0.367c-0.616,0-0.982,0.367-0.982,1.129
			c0,2.184,4.499,1.084,4.499,4.778c0,2.374-1.319,3.326-3.576,3.326c-1.788,0-3.443-0.542-3.443-2.726v-0.674L415.38,277.661
			L415.38,277.661z"/>
	</g>
</g>
</svg>
